<svg width="30" height="31" viewBox="0 0 30 31" fill="none" xmlns="http://www.w3.org/2000/svg">
<path d="M3.75 6.125V24.866" stroke="#9B9B9B" stroke-width="2" stroke-linecap="round"/>
<path d="M26.25 11.75V24.875" stroke="#9B9B9B" stroke-width="2" stroke-linecap="round" stroke-linejoin="round"/>
<path d="M7.5 2.375H16.875" stroke="#9B9B9B" stroke-width="2" stroke-linecap="round" stroke-linejoin="round"/>
<path d="M7.5 28.625H22.5" stroke="#9B9B9B" stroke-width="2" stroke-linecap="round"/>
<path d="M26.25 24.875C26.2602 26.7479 24.375 28.625 22.5 28.625" stroke="#9B9B9B" stroke-width="2" stroke-linecap="round" stroke-linejoin="round"/>
<path d="M3.75 24.875C3.75 26.75 5.625 28.625 7.5 28.625" stroke="#9B9B9B" stroke-width="2" stroke-linecap="round" stroke-linejoin="round"/>
<path d="M3.75 6.12231C3.75 4.25004 5.625 2.41679 7.5 2.37504" stroke="#9B9B9B" stroke-width="2" stroke-linecap="round" stroke-linejoin="round"/>
<path d="M26.2398 11.7584L16.875 2.375" stroke="#9B9B9B" stroke-width="2" stroke-linecap="round" stroke-linejoin="round"/>
<path d="M16.875 8C16.8808 9.8648 18.7576 11.75 20.625 11.75" stroke="#9B9B9B" stroke-width="2" stroke-linecap="round" stroke-linejoin="round"/>
<path d="M16.875 8V2.375" stroke="#9B9B9B" stroke-width="2" stroke-linecap="round" stroke-linejoin="round"/>
<path d="M20.625 11.75H26.25" stroke="#9B9B9B" stroke-width="2" stroke-linecap="round" stroke-linejoin="round"/>
<path d="M7.5 24.875H13.125" stroke="#9B9B9B" stroke-width="2" stroke-linecap="round" stroke-linejoin="round"/>
<path d="M7.5 21.125H16.875" stroke="#9B9B9B" stroke-width="2" stroke-linecap="round" stroke-linejoin="round"/>
<path d="M7.5 17.375H13.125" stroke="#9B9B9B" stroke-width="2" stroke-linecap="round" stroke-linejoin="round"/>
</svg>
