<svg width="31" height="31" viewBox="0 0 31 31" fill="none" xmlns="http://www.w3.org/2000/svg">
<path d="M27.0625 15.5H11.6188M6.1675 15.5H3.9375M6.1675 15.5C6.1675 14.7773 6.4546 14.0842 6.96563 13.5731C7.47667 13.0621 8.16979 12.775 8.8925 12.775C9.61522 12.775 10.3083 13.0621 10.8194 13.5731C11.3304 14.0842 11.6175 14.7773 11.6175 15.5C11.6175 16.2227 11.3304 16.9158 10.8194 17.4269C10.3083 17.9379 9.61522 18.225 8.8925 18.225C8.16979 18.225 7.47667 17.9379 6.96563 17.4269C6.4546 16.9158 6.1675 16.2227 6.1675 15.5ZM27.0625 23.7587H19.8775M19.8775 23.7587C19.8775 24.4816 19.5897 25.1755 19.0786 25.6867C18.5674 26.1978 17.8741 26.485 17.1513 26.485C16.4285 26.485 15.7354 26.1966 15.2244 25.6856C14.7133 25.1746 14.4262 24.4815 14.4262 23.7587M19.8775 23.7587C19.8775 23.0359 19.5897 22.3432 19.0786 21.8321C18.5674 21.3209 17.8741 21.0337 17.1513 21.0337C16.4285 21.0337 15.7354 21.3208 15.2244 21.8319C14.7133 22.3429 14.4262 23.036 14.4262 23.7587M14.4262 23.7587H3.9375M27.0625 7.24124H23.1813M17.73 7.24124H3.9375M17.73 7.24124C17.73 6.51852 18.0171 5.82541 18.5281 5.31437C19.0392 4.80333 19.7323 4.51624 20.455 4.51624C20.8129 4.51624 21.1672 4.58672 21.4978 4.72366C21.8284 4.86061 22.1288 5.06133 22.3819 5.31437C22.6349 5.56741 22.8356 5.86781 22.9726 6.19842C23.1095 6.52904 23.18 6.88338 23.18 7.24124C23.18 7.59909 23.1095 7.95344 22.9726 8.28405C22.8356 8.61466 22.6349 8.91506 22.3819 9.1681C22.1288 9.42114 21.8284 9.62186 21.4978 9.75881C21.1672 9.89575 20.8129 9.96623 20.455 9.96623C19.7323 9.96623 19.0392 9.67914 18.5281 9.1681C18.0171 8.65706 17.73 7.96395 17.73 7.24124Z" stroke="white" stroke-width="2" stroke-miterlimit="10" stroke-linecap="round"/>
</svg>
