<svg width="30" height="31" viewBox="0 0 30 31" fill="none" xmlns="http://www.w3.org/2000/svg">
<path d="M7.66625 26.75C6.19375 26.75 5 25.525 5 24.0125V13.01C5 12.1787 5.36875 11.3912 6 10.8725L13.3337 4.84998C13.8023 4.46196 14.3916 4.24963 15 4.24963C15.6084 4.24963 16.1977 4.46196 16.6663 4.84998L23.9987 10.8725C24.6312 11.3912 25 12.1787 25 13.01V24.0125C25 25.525 23.8063 26.75 22.3338 26.75H7.66625Z" stroke="#9B9B9B" stroke-width="2" stroke-linecap="round" stroke-linejoin="round"/>
<path d="M11.875 26.75V19.875C11.875 19.212 12.1384 18.5761 12.6072 18.1072C13.0761 17.6384 13.712 17.375 14.375 17.375H15.625C16.288 17.375 16.9239 17.6384 17.3928 18.1072C17.8616 18.5761 18.125 19.212 18.125 19.875V26.75" stroke="#9B9B9B" stroke-width="2" stroke-linecap="round" stroke-linejoin="round"/>
</svg>
